<svg width="256" height="256" viewBox="0 0 256 256" fill="none" xmlns="http://www.w3.org/2000/svg">
<g clip-path="url(#clip0_1457_248)">
<path d="M111.442 119.29C115.127 118.84 119.177 119.144 122.879 119.228C132.159 131.728 145.614 141.441 161.266 143.834C163.603 144.192 166.08 144.546 168.442 144.614C170.43 144.671 173.083 144.193 174.969 144.687C175.563 144.843 176.024 145.415 176.317 145.934C179.14 150.927 178.674 160.595 177.305 166.009C184.417 167.048 191.336 168.767 197.655 172.306C202.664 175.111 206.499 179.386 208.059 184.977C209.863 191.445 208.979 199.238 205.622 205.073C203.354 209.013 199.583 212.596 195.095 213.766C189.487 215.228 183.818 213.298 180.284 208.71C177 204.446 176.046 200.508 170.952 197.559C166.787 195.147 161.031 194.597 156.313 194.748C144.287 195.133 132.937 199.744 122.926 206.171C113.627 212.141 107.375 217.173 96.2552 220.052C92.4062 221.154 88.1127 221.821 84.1234 221.952C73.2037 222.308 57.788 220.846 49.4763 212.955C46.2947 209.935 44.4146 205.918 44.3162 201.523C44.2124 196.881 45.725 192.574 48.9614 189.197C52.941 185.116 58.6329 183.185 64.274 184.002C68.9758 184.638 73.2095 186.142 78.0572 185.993C92.048 185.56 102.224 176.166 109.796 165.247C113.607 159.752 116.937 153.987 121.541 149.084C114.104 145.317 103.878 146.05 97.1351 151.005C92.7533 154.226 90.7694 158.532 84.7593 159.227C81.5205 159.602 78.0497 158.987 75.4635 156.92C73.2957 155.188 71.8951 152.891 71.611 150.1C71.1118 145.198 73.0896 140.954 76.142 137.223C84.7372 126.715 98.1174 120.608 111.442 119.29Z" fill="#FE4575"/>
<path d="M166.747 34.4347C195.224 32.043 220.237 53.2167 222.58 81.6984C224.922 110.18 203.705 135.157 175.218 137.45C146.803 139.738 121.901 118.583 119.564 90.1711C117.227 61.7588 138.338 36.8205 166.747 34.4347ZM201.903 65.1037C200.499 64.4232 199.27 64.3926 197.744 64.5099C195.363 65.2954 193.683 66.466 192.509 68.7609C190.514 72.6646 190.859 77.6496 192.215 81.6935C193.233 84.732 195.152 88.0885 198.103 89.6037C199.543 90.3426 200.788 90.4786 202.364 90.216L202.474 90.1994C204.797 89.4694 206.345 88.1318 207.465 85.9425C209.465 82.0288 209.162 76.9655 207.79 72.9084C206.775 69.9075 204.866 66.539 201.903 65.1037Z" fill="#FE4575"/>
<path d="M27.0857 79.5238C31.23 79.38 35.4125 79.4949 39.5599 79.4956L62.5248 79.5006L80.5742 79.4841C83.7702 79.4777 87.0341 79.3417 90.2236 79.5085C91.0778 79.5528 92.006 79.6527 92.7826 80.0298C93.9008 80.5734 94.6963 81.6173 95.0463 82.7978C95.4231 84.0703 95.2574 85.6226 94.5865 86.7735C93.8354 88.0614 92.5596 88.5989 91.1855 88.9735C87.5838 89.1134 83.9387 89.0014 80.3331 89.0004L59.6019 88.9943L39.6129 89.005C35.9328 89.0125 32.2115 89.1313 28.5354 88.9939C27.6025 88.9589 26.4416 88.908 25.5921 88.5008C24.511 87.9826 23.6762 86.9825 23.2882 85.8552C22.8635 84.6217 22.8842 83.2147 23.5112 82.0524C24.2931 80.6035 25.5566 79.944 27.0857 79.5238Z" fill="#F2781A"/>
<path d="M60.1762 59.1486C69.8921 58.8237 79.7269 59.0935 89.4535 59.1193C92.9035 59.1386 96.3535 59.1336 99.8035 59.105C101.869 59.091 104.006 58.9661 106.066 59.1143C107.122 59.1901 108.166 59.4109 109.097 59.933C110.185 60.5425 111.009 61.4686 111.307 62.6971C111.623 64.0007 111.394 65.6353 110.675 66.7751C109.872 68.049 108.61 68.5997 107.201 68.9379C104.197 69.0975 101.14 68.9855 98.1313 68.9841L81.5701 68.978L68.9124 68.9823C66.3033 68.9945 63.623 69.1347 61.0204 68.9497C59.9719 68.8749 58.9098 68.6309 57.9823 68.1238C56.932 67.5495 56.0281 66.6591 55.7461 65.4632C55.4172 64.0673 55.8867 62.2032 56.6908 61.037C57.5214 59.8328 58.7949 59.3902 60.1762 59.1486Z" fill="#F2781A"/>
<path d="M56.5115 99.9454C59.1424 99.779 61.8198 99.8642 64.4571 99.8638L77.4992 99.8656L92.3707 99.8713C94.9207 99.8724 97.5129 99.7754 100.058 99.896C100.709 99.9271 101.318 100.012 101.924 100.265C103.058 100.738 103.892 101.66 104.307 102.811C104.774 104.097 104.703 105.516 104.109 106.748C103.422 108.152 102.356 108.825 100.931 109.355C98.828 109.758 96.4709 109.563 94.3241 109.561L83.9444 109.544L66.013 109.535C63.3621 109.535 60.6664 109.667 58.022 109.569C57.2905 109.542 56.573 109.408 55.9017 109.111C54.6299 108.548 53.6437 107.555 53.1878 106.23C52.7727 105.006 52.8589 103.668 53.4283 102.508C54.1007 101.137 55.1048 100.441 56.5115 99.9454Z" fill="#F2781A"/>
</g>
<defs>
<clipPath id="clip0_1457_248">
<rect width="256" height="256" fill="white"/>
</clipPath>
</defs>
</svg>
