<svg width="100" height="100" viewBox="0 0 100 100" fill="none" xmlns="http://www.w3.org/2000/svg">
<path d="M55.4474 28.3535C55.5958 28.3566 55.6734 28.387 55.8023 28.4576C55.8974 28.5994 55.9399 28.6465 55.925 28.8244C55.8792 29.3776 55.6619 30.0001 55.5304 30.5434L54.619 34.3055L50.8711 49.9752L49.8369 54.2952C49.6231 55.1857 49.3398 56.1131 49.2628 57.0262C49.2318 57.3999 49.2001 57.9039 49.3748 58.2493C49.7681 59.0258 50.6363 59.786 51.2205 60.4427L55.6869 65.4796C56.4087 66.2962 57.2499 67.1124 57.8813 67.9965C58.0479 68.2293 58.2071 68.5163 58.2402 68.805C58.2733 69.0951 58.2045 69.3683 58.0237 69.599C57.8597 69.8088 57.6452 69.9558 57.4111 70.0773C56.862 70.3619 53.7873 71.4986 53.2544 71.5499C52.797 71.5944 52.4185 71.39 52.0549 71.1303C51.2475 70.5549 50.5648 69.7326 49.8727 69.0256L45.9785 65.1051C45.2678 64.3924 44.5593 63.5753 43.7705 62.9539C43.4297 62.6854 43.0906 62.5537 42.662 62.4984C41.4778 62.3457 40.1776 62.5609 38.9904 62.6527C37.3898 62.7767 35.7829 62.8765 34.1868 63.0503L34.1517 63.0505C33.0248 63.0634 31.8755 63.2082 30.7512 63.2994C29.8965 63.3688 28.9601 63.3752 28.123 63.5525C27.7044 63.6412 27.2483 63.7908 26.9027 64.0512C26.0346 64.7055 25.3902 65.7883 24.6261 66.5752C23.8196 66.0385 23.0567 65.2418 22.3229 64.5988C21.2654 63.6722 20.0558 62.7631 19.1213 61.7165C18.9474 61.5217 18.8371 61.3074 18.7316 61.0703C18.8359 59.9602 19.215 58.8109 19.4818 57.7265L20.9298 51.8063L23.9634 39.4328C24.5079 37.2128 25.0187 34.9776 25.6054 32.7687C25.6868 32.4621 25.8441 31.7392 26.0591 31.5245C26.1257 31.458 26.2996 31.4585 26.3923 31.4447C28.061 31.1952 29.7661 31.0705 31.4444 30.8866L42.5692 29.7038L50.7206 28.8355C52.2884 28.6651 53.873 28.4293 55.4474 28.3535Z" fill="#FEC010"/>
<path d="M33.3615 50.355C34.1551 50.4594 34.5032 51.252 35.0847 51.7276C35.6353 52.178 36.3228 52.4286 37.0287 52.4807C39.514 52.6641 39.8895 51.0077 41.1701 50.8924C41.4635 50.8659 41.7765 50.9483 41.9991 51.1463C42.1971 51.3227 42.2874 51.5574 42.2937 51.8188C42.3105 52.5043 41.8277 53.0232 41.3843 53.4828C40.699 54.1221 39.7991 54.5352 38.897 54.7645C37.2992 55.1704 35.4945 54.9802 34.0748 54.1176C33.3408 53.6716 32.6268 53.0214 32.4265 52.1531C32.331 51.7391 32.3077 51.1774 32.5613 50.8115C32.7588 50.5267 33.037 50.4276 33.3615 50.355Z" fill="black"/>
<path d="M43.3633 40.9296C43.6732 40.9087 43.9592 40.9358 44.2396 41.0774C44.7256 41.3228 45.0255 41.7668 45.1895 42.2749C45.569 43.4507 45.3673 44.9452 44.7979 46.0201C44.4157 46.7416 43.8821 47.3113 43.0917 47.5549C42.8125 47.5613 42.5181 47.563 42.2584 47.4483C41.7667 47.2315 41.4252 46.8345 41.232 46.3389C40.8023 45.2369 41.0097 43.8543 41.4877 42.794C41.8865 41.9094 42.4538 41.2787 43.3633 40.9296Z" fill="black"/>
<path d="M34.2284 40.6724C34.5957 40.6565 34.9536 40.7336 35.2587 40.9469C35.7567 41.2951 35.9956 41.8865 36.0995 42.4658C36.3231 43.712 36.0363 45.1228 35.3104 46.164C34.9001 46.7524 34.4127 47.1501 33.6973 47.274C33.4382 47.2734 33.1826 47.2297 32.9511 47.1108C32.4532 46.8548 32.1327 46.4266 31.9639 45.8986C31.6073 44.7829 31.8395 43.3505 32.3665 42.3294C32.7923 41.5042 33.3431 40.9568 34.2284 40.6724Z" fill="black"/>
<path d="M20.9294 70.6999C18.9192 68.8307 16.6746 67.0898 14.8676 65.0227C13.763 63.77 13.214 62.1228 13.3463 60.4581C13.4474 59.0925 14.0351 57.2766 14.3695 55.9014L16.619 46.6687L19.3051 35.6082C19.7456 33.7972 20.0721 31.8297 20.7078 30.0824C21.063 29.0869 21.672 28.2014 22.4745 27.5134C23.1682 26.9184 24.0012 26.5085 24.8958 26.3218C25.5552 26.1885 26.2505 26.1484 26.9189 26.0764L30.5556 25.6885L42.0588 24.4729L51.5166 23.4665C53.2017 23.2855 55.326 22.8906 56.9814 23.0287C58.1862 23.1292 59.5125 23.9911 60.2572 24.8944C61.0627 25.8715 61.4202 27.0588 61.408 28.3117C61.3912 30.0608 60.4785 33.0718 60.0434 34.8954L56.6947 49.0174L55.577 53.7077C55.3577 54.641 55.0818 55.6007 54.9847 56.555C55.3989 57.2488 56.0896 57.8736 56.6259 58.4872L60.3665 62.8344C61.3413 63.9679 62.5663 65.1517 63.2476 66.4905C63.6119 67.207 63.7947 68.0708 63.8264 68.8712C63.8993 70.5138 63.3104 72.1166 62.1906 73.3207C61.7372 73.8084 61.2151 74.2273 60.641 74.5646C59.4956 75.2331 56.1416 76.4845 54.8592 76.8096C54.3485 76.9398 53.8264 77.0154 53.2996 77.0363C52.1029 77.0781 50.8454 76.7881 49.8086 76.183C48.282 75.2925 46.9598 73.631 45.7404 72.3493C44.346 70.8828 42.9445 69.3798 41.4639 68.0011C39.6766 67.9991 37.8634 68.2326 36.0794 68.3667C34.1214 68.5136 32.1344 68.5811 30.1846 68.8017C28.6359 70.3424 24.5405 76.5972 23.2131 77.2947C22.4408 77.7008 21.5953 77.7561 20.7667 77.4883C19.6697 77.1334 13.8876 73.7288 12.8069 72.8903C12.549 72.69 12.3129 72.4518 12.168 72.1557C11.9896 71.7908 11.9429 71.3017 12.0784 70.9151C12.2353 70.4679 12.5985 70.192 13.0108 69.997C13.6178 69.7569 14.0083 69.7562 14.6205 69.9795C15.1991 70.1718 15.7528 70.621 16.2515 70.9691C17.1916 71.6187 18.1161 72.2906 19.024 72.9841C19.8656 73.6249 20.7139 74.3845 21.6585 74.8601C21.7041 74.8297 21.7478 74.798 21.7925 74.7663C22.4643 74.2908 22.97 73.49 23.4736 72.8431L26.5454 68.8894C27.1314 68.1281 27.7201 67.2049 28.4241 66.5562C28.5457 66.4441 28.7168 66.281 28.8817 66.2428C29.5312 66.0922 30.2508 66.0878 30.9158 66.038L34.3211 65.7822L39.5098 65.3892C40.489 65.316 41.4909 65.1812 42.4728 65.2159C42.4865 65.225 42.5 65.2343 42.5139 65.2432C43.4073 65.8138 44.2398 66.8658 44.9627 67.6516C45.9913 68.7693 47.0792 69.8297 48.1289 70.928C48.9478 71.7854 49.7452 72.7945 50.6943 73.5049C51.1564 73.8577 51.6893 74.1073 52.2567 74.2361C52.7673 74.3521 53.2969 74.3629 53.8122 74.2665C54.8498 74.0776 58.531 72.7122 59.3357 72.1847C60.1351 71.6599 60.7773 70.8086 60.9675 69.8635C61.1004 69.2004 61.0789 68.3434 60.7854 67.724C60.3355 66.7764 59.3803 65.898 58.6956 65.1L54.3155 59.9867C53.5175 59.0531 52.6115 58.1222 51.9288 57.1037C52.0826 56.2606 52.3221 55.4164 52.5218 54.5821L53.6503 49.8463L57.2034 34.9895C57.4961 33.7694 58.7138 29.4024 58.6827 28.4095C58.6591 27.6481 58.3758 26.928 57.8092 26.4097C57.2843 25.9288 56.5989 25.659 55.8859 25.6952C53.875 25.7972 51.8155 26.1349 49.8086 26.3503L37.2335 27.6937L29.3251 28.531C28.097 28.6586 26.6348 28.6877 25.4434 28.9678C24.9095 29.0934 24.3629 29.4866 24.0052 29.8932C23.6371 30.3117 23.3856 30.7889 23.2229 31.3198C22.7731 32.787 22.4775 34.3293 22.1116 35.8216L19.9385 44.701L17.6551 54.0067C17.3185 55.3596 15.9878 60.0092 16.0695 61.1594C16.1193 61.8612 16.3975 62.5235 16.7975 63.0974C17.787 64.5173 21.2818 67.3454 22.7099 68.5892C22.0919 69.2705 21.5689 70.0335 20.9294 70.6999Z" fill="#FCF8E9"/>
<path d="M61.5109 59.2929C61.056 58.7004 61.4363 57.8394 62.1806 57.7766L72.0534 56.9438C72.6711 56.8917 73.1707 57.4389 73.0627 58.0494L72.6898 60.1576C72.6156 60.5774 72.2693 60.8953 71.8447 60.9337L63.8764 61.6529C63.5542 61.6819 63.2395 61.544 63.0424 61.2874L61.5109 59.2929Z" fill="#FE6600"/>
<path d="M61.7338 50.103C61.8862 49.654 62.286 49.3348 62.7575 49.2855L78.7997 47.6096C79.717 47.5138 80.4021 48.4353 80.046 49.2861L79.13 51.4746C78.9577 51.8862 78.5736 52.1701 78.1296 52.2141L62.2972 53.7822C61.4187 53.8692 60.744 53.0195 61.0277 52.1836L61.7338 50.103Z" fill="#005CE6"/>
<path d="M64.2012 32.6456C64.3371 32.1692 64.7489 31.8231 65.2417 31.7712L78.9454 30.3286C79.8339 30.2351 80.5157 31.1007 80.2167 31.9426L79.4448 34.116C79.2874 34.5591 78.8883 34.8716 78.4203 34.9179L64.8978 36.2572C64.045 36.3417 63.3754 35.5399 63.6105 34.7157L64.2012 32.6456Z" fill="#005CE6"/>
<path d="M63.1235 41.0951C63.2455 40.7542 63.5517 40.5131 63.9116 40.4743L87.7885 37.9037C88.4644 37.8309 88.9935 38.4747 88.7912 39.1237L87.785 42.3519C87.673 42.7113 87.3582 42.9699 86.9839 43.01L62.9571 45.5831C62.2644 45.6573 61.7326 44.9817 61.9673 44.3258L63.1235 41.0951Z" fill="#FE6600"/>
</svg>
